<svg width="87" height="27" viewBox="0 0 87 27" fill="none" xmlns="http://www.w3.org/2000/svg">
<g clip-path="url(#clip0)">
<path d="M74.9751 6.24509H79.4272V8.6801C80.2153 7.11883 81.2378 5.86551 83.0059 5.86551C85.5692 5.86551 86.8899 8.07135 86.8899 11.1867V26.6276H82.4378V12.2109C82.4378 10.7284 81.8698 9.89044 80.968 9.89044C80.0662 9.89044 79.4201 10.7284 79.4201 12.2109V26.6204H74.968V6.24509H74.9751ZM30.7384 17.3459V15.5196C30.7384 8.25755 32.6201 5.85835 35.0343 5.85835C36.9941 5.85835 37.9029 7.49124 38.5846 8.70875V0.0071618H43.0296V26.6204H38.5775V24.0708C37.9384 25.2883 36.9941 27 35.0272 27C32.6201 27.0071 30.7384 24.6796 30.7384 17.3459ZM38.613 17.1167V15.7488C38.613 12.1392 37.9739 10.1554 36.8378 10.1554C35.7089 10.1554 35.1834 12.1321 35.1834 15.7488V17.1167C35.1834 20.7692 35.7089 22.7101 36.8378 22.7101C37.9739 22.7101 38.613 20.7692 38.613 17.1167ZM0 0.0071618H4.55858L7.80354 9.74005L11.0485 0.0071618H15.6071V26.6204H11.1976V10.535L7.83905 20.6117H7.76094L4.40946 10.535V26.6204H0V0.0071618ZM21.5432 17.9117C21.5432 19.6735 21.7917 22.9894 23.5384 23.0037C24.5822 23.0109 24.7739 21.4926 25.0793 19.8525L29.4887 19.8668C29.226 22.1944 27.7491 27 23.4319 27C18.7882 27 16.6864 21.9939 16.6864 16.4363C16.6864 10.757 18.9018 5.95146 23.368 5.95146C28.0402 5.95146 29.6592 11.3156 29.6592 16.5581V17.9188H21.5432V17.9117ZM25.1716 14.0658C24.9941 12.4257 25.0225 10.0265 23.3467 10.0265C21.9692 10.0265 21.6284 12.7194 21.5503 14.0658H25.1716ZM44.1656 0.0071618H48.7242L51.9692 9.74005L55.2142 0.0071618H59.7727V26.6204H55.3633V10.535L52.0047 20.6117H51.9337L48.5751 10.535V26.6204H44.1656V0.0071618ZM65.7159 17.9117C65.7159 19.6735 65.9715 22.9894 67.7112 23.0037C68.755 23.0109 68.9467 21.4926 69.252 19.8525L73.6544 19.8668C73.3917 22.1944 71.9147 27 67.6047 27C62.9609 27 60.8591 21.9939 60.8591 16.4363C60.8591 10.757 63.0745 5.95146 67.5408 5.95146C72.213 5.95146 73.8319 11.3156 73.8319 16.5581V17.9188H65.7159V17.9117ZM69.3372 14.0658C69.1597 12.4257 69.1881 10.0265 67.5124 10.0265C66.1349 10.0265 65.794 12.7194 65.7159 14.0658H69.3372ZM86.0804 0.107427C86.2508 0.179045 86.3928 0.27931 86.5135 0.401061C86.6343 0.522811 86.7337 0.673209 86.8047 0.845092C86.8757 1.00981 86.9112 1.19602 86.9112 1.38939C86.9112 1.58276 86.8757 1.76896 86.8047 1.93369C86.7337 2.09841 86.6343 2.2488 86.5135 2.37056C86.3928 2.49231 86.2437 2.59257 86.0804 2.66419C85.9171 2.73581 85.7325 2.77162 85.5408 2.77162C85.349 2.77162 85.1644 2.73581 85.0011 2.66419C84.8307 2.59257 84.6887 2.49947 84.568 2.37056C84.4473 2.2488 84.3479 2.09841 84.2769 1.93369C84.2059 1.76896 84.1704 1.58276 84.1704 1.38939C84.1704 1.19602 84.2059 1.01698 84.2769 0.845092C84.3479 0.673209 84.4402 0.529973 84.568 0.401061C84.6887 0.27931 84.8378 0.179045 85.0011 0.107427C85.1644 0.035809 85.349 0 85.5408 0C85.7325 0 85.9171 0.035809 86.0804 0.107427ZM85.0792 0.286472C84.9372 0.350928 84.8165 0.429708 84.71 0.537135C84.6035 0.644562 84.5254 0.766312 84.4686 0.909548C84.4118 1.05278 84.3834 1.21034 84.3834 1.37507C84.3834 1.53979 84.4118 1.69735 84.4686 1.84058C84.5254 1.98382 84.6035 2.11273 84.71 2.213C84.8165 2.32042 84.9372 2.40636 85.0792 2.46366C85.2212 2.52812 85.3774 2.55676 85.5408 2.55676C85.7041 2.55676 85.8603 2.52812 86.0023 2.46366C86.1443 2.3992 86.265 2.32042 86.3715 2.213C86.478 2.10557 86.5562 1.98382 86.613 1.84058C86.6698 1.69735 86.6982 1.53979 86.6982 1.37507C86.6982 1.21034 86.6698 1.05278 86.613 0.909548C86.5562 0.766312 86.4709 0.6374 86.3715 0.537135C86.265 0.429708 86.1443 0.343766 86.0023 0.286472C85.8603 0.222016 85.7112 0.193369 85.5408 0.193369C85.3703 0.193369 85.2212 0.229178 85.0792 0.286472ZM85.0437 2.18435V0.580106H85.6544C85.8319 0.580106 85.9668 0.615915 86.0449 0.694695C86.1301 0.773474 86.1656 0.880901 86.1656 1.02414C86.1656 1.09576 86.1585 1.15305 86.1372 1.20318C86.1159 1.25331 86.0875 1.29629 86.052 1.33209C86.0165 1.3679 85.9739 1.39655 85.9242 1.41804C85.8745 1.43952 85.8248 1.45385 85.7751 1.46101L86.2437 2.17003H86.0165L85.5692 1.46101H85.2425V2.17003H85.0437V2.18435ZM85.6686 1.29629C85.7254 1.28912 85.7751 1.28196 85.8248 1.26764C85.8674 1.25331 85.9029 1.22467 85.9313 1.1817C85.9597 1.14589 85.9739 1.08859 85.9739 1.02414C85.9739 0.966843 85.9668 0.923872 85.9455 0.888063C85.9242 0.852254 85.8958 0.823607 85.8603 0.802121C85.8248 0.780636 85.7822 0.766313 85.7396 0.759151C85.697 0.751989 85.6473 0.744827 85.5976 0.744827H85.2425V1.29629H85.4982C85.555 1.30345 85.6118 1.30345 85.6686 1.29629Z" fill="#AA1F16"/>
</g>
<defs>
<clipPath id="clip0">
<rect width="86.9112" height="27" fill="white"/>
</clipPath>
</defs>
</svg>
