<svg width="179px" height="55px" viewBox="0 0 179 55" version="1.1" xmlns="http://www.w3.org/2000/svg" xmlns:xlink="http://www.w3.org/1999/xlink">
    <g id="Symbols" stroke="none" stroke-width="1" fill="none" fill-rule="evenodd">
        <g id="logo/logotype-White" fill="#FFFFFF">
            <path d="M175.563972,3.17948297 C175.70119,3.17045548 175.823061,3.1451785 175.929586,3.10455478 C176.034304,3.06393106 176.119163,2.99893311 176.183258,2.90685269 C176.249159,2.81657776 176.279852,2.69199836 176.279852,2.53401723 C176.279852,2.40041034 176.255478,2.29208043 176.20673,2.20902749 C176.156176,2.12687731 176.088469,2.06187936 176.002708,2.0113254 C175.918753,1.96167419 175.823061,1.92736972 175.719245,1.91021748 C175.612721,1.89306524 175.502585,1.88403775 175.384325,1.88403775 L174.533032,1.88403775 L174.533032,3.19302421 L175.148707,3.19302421 C175.287731,3.19302421 175.427657,3.18760771 175.563972,3.17948297 L175.563972,3.17948297 Z M174.067214,5.26573656 L174.067214,1.48863357 L175.516126,1.48863357 C175.943127,1.48863357 176.255478,1.57890849 176.451375,1.7567501 C176.647271,1.93549446 176.746574,2.1945835 176.746574,2.53401723 C176.746574,2.69741485 176.720394,2.84095199 176.670743,2.96462864 C176.621994,3.08649979 176.552483,3.19121871 176.465819,3.27517439 C176.376446,3.36093558 176.276241,3.42773902 176.161592,3.47829298 C176.047846,3.52794419 175.925975,3.56405416 175.798687,3.58752565 L176.92261,5.26573656 L176.376446,5.26573656 L175.314813,3.58752565 L174.533032,3.58752565 L174.533032,5.26573656 L174.067214,5.26573656 Z M174.151169,0.795322117 C173.814444,0.941567501 173.523759,1.14017234 173.278211,1.39294214 C173.030858,1.64480919 172.838572,1.93910546 172.702257,2.27853919 C172.565039,2.61977842 172.495527,2.98448913 172.495527,3.37628231 C172.495527,3.76897825 172.565039,4.13459171 172.702257,4.47402544 C172.838572,4.81526467 173.030858,5.10956094 173.278211,5.36052524 C173.523759,5.61329503 173.814444,5.81280263 174.151169,5.95814526 C174.486992,6.10439064 174.854411,6.17751334 175.252524,6.17751334 C175.646122,6.17751334 176.009027,6.10439064 176.345753,5.95814526 C176.681576,5.81280263 176.974066,5.61329503 177.219614,5.36052524 C177.465162,5.10956094 177.65835,4.81526467 177.800985,4.47402544 C177.939105,4.13459171 178.011325,3.76897825 178.011325,3.37628231 C178.011325,2.98448913 177.939105,2.61977842 177.800985,2.27853919 C177.65835,1.93910546 177.465162,1.64480919 177.219614,1.39294214 C176.974066,1.14017234 176.681576,0.941567501 176.345753,0.795322117 C176.009027,0.649076734 175.646122,0.575954042 175.252524,0.575954042 C174.854411,0.575954042 174.486992,0.649076734 174.151169,0.795322117 L174.151169,0.795322117 Z M176.543455,0.360196963 C176.940665,0.527205581 177.28732,0.758309397 177.578908,1.05441116 C177.872302,1.34961018 178.102503,1.6962659 178.270414,2.09528108 C178.43652,2.49249077 178.519573,2.92039393 178.519573,3.37628231 C178.519573,3.8393927 178.43652,4.2681986 178.270414,4.66360279 C178.102503,5.05810423 177.872302,5.4020517 177.578908,5.69544522 C177.28732,5.98703324 176.940665,6.2172343 176.543455,6.38424292 C176.147148,6.55125154 175.715634,6.63430447 175.252524,6.63430447 C174.791219,6.63430447 174.359705,6.55125154 173.963398,6.38424292 C173.564382,6.2172343 173.217727,5.98703324 172.926139,5.69544522 C172.634551,5.4020517 172.40435,5.05810423 172.237341,4.66360279 C172.06943,4.2681986 171.986377,3.8393927 171.986377,3.37628231 C171.986377,2.92039393 172.06943,2.49249077 172.237341,2.09528108 C172.40435,1.6962659 172.634551,1.34961018 172.926139,1.05441116 C173.217727,0.758309397 173.564382,0.527205581 173.963398,0.360196963 C174.359705,0.193188346 174.791219,0.111038162 175.252524,0.111038162 C175.715634,0.111038162 176.147148,0.193188346 176.543455,0.360196963 L176.543455,0.360196963 Z M142.468281,28.6478457 C142.098153,25.3076734 142.158638,20.4138695 138.712844,20.4138695 C135.879114,20.4138695 135.175872,25.8998769 135.016988,28.6478457 L142.468281,28.6478457 Z M135.016988,36.4728765 C135.016988,40.0622076 135.537874,46.8183833 139.122692,46.8427575 C141.26943,46.862618 141.666639,43.7643824 142.285023,40.4242101 L151.333279,40.4485843 C150.788018,45.1961428 147.760197,54.9801395 138.89881,54.9801395 C129.350431,54.9801395 125.042511,44.7899056 125.042511,33.4558884 C125.042511,21.8853508 129.598687,12.0959376 138.772425,12.0959376 C148.37858,12.0959376 151.698892,23.0219122 151.698892,33.7041444 L151.698892,36.4728765 L135.016988,36.4728765 Z M90.7479688,0 L100.121215,0 L106.783504,19.8270825 L113.442183,0 L122.810012,0 L122.810012,54.2200246 L113.750021,54.2200246 L113.750021,21.4538367 L106.856627,41.9805499 L106.705868,41.9805499 L99.8088634,21.4538367 L99.8088634,54.2200246 L90.7479688,54.2200246 L90.7479688,0 Z M51.7203119,28.6478457 C51.3501847,25.3076734 51.4124744,20.4138695 47.9648748,20.4138695 C45.1320476,20.4138695 44.4279032,25.8998769 44.269922,28.6478457 L51.7203119,28.6478457 Z M44.269922,36.4728765 C44.269922,40.0622076 44.7853919,46.8183833 48.371112,46.8427575 C50.5214608,46.862618 50.9159622,43.7643824 51.53254,40.4242101 L60.5862126,40.4485843 C60.040952,45.1961428 57.0167419,54.9801395 48.1472302,54.9801395 C38.6069758,54.9801395 34.2945425,44.7899056 34.2945425,33.4558884 C34.2945425,21.8853508 38.8480098,12.0959376 48.025359,12.0959376 C57.6306114,12.0959376 60.955437,23.0219122 60.955437,33.7041444 L60.955437,36.4728765 L44.269922,36.4728765 Z M0,0 L9.37324579,0 L16.0319245,19.8270825 L22.6942142,0 L32.0629462,0 L32.0629462,54.2200246 L23.0065654,54.2200246 L23.0065654,21.4538367 L16.1086582,41.9805499 L15.9542881,41.9805499 L9.06089454,21.4538367 L9.06089454,54.2200246 L0,54.2200246 L0,0 Z M79.3390234,34.8551498 L79.3390234,32.071071 C79.3390234,24.7136643 78.0219122,20.681986 75.6973328,20.681986 C73.3763644,20.681986 72.2948707,24.7136643 72.2948707,32.071071 L72.2948707,34.8551498 C72.2948707,42.2938039 73.3763644,46.2487485 75.6973328,46.2487485 C78.0219122,46.2487485 79.3390234,42.2938039 79.3390234,34.8551498 L79.3390234,34.8551498 Z M63.1527288,35.3218712 L63.1527288,31.6034469 C63.1527288,16.8118999 67.0237177,11.928929 71.9789085,11.928929 C76.0105868,11.928929 77.8720558,15.2591711 79.2668034,17.7390234 L79.2668034,0 L88.4071399,0 L88.4071399,54.2200246 L79.2668034,54.2200246 L79.2668034,49.0283135 C77.9496922,51.5126795 76.0105868,55 71.9789085,55 C67.0237177,55 63.1527288,50.268691 63.1527288,35.3218712 L63.1527288,35.3218712 Z M154.041526,12.7070989 L163.182766,12.7070989 L163.182766,17.661387 C164.808617,14.4828067 166.902093,11.928929 170.541075,11.928929 C175.800492,11.928929 178.519573,16.4219122 178.519573,22.7709479 L178.519573,54.2200246 L169.381945,54.2200246 L169.381945,24.8644235 C169.381945,21.8438244 168.220107,20.1367255 166.357735,20.1367255 C164.499877,20.1367255 163.182766,21.8438244 163.182766,24.8644235 L163.182766,54.2200246 L154.041526,54.2200246 L154.041526,12.7070989 Z" id="Fill-1"></path>
        </g>
    </g>
</svg>
